<svg version="1.1" id="Ebene_1" xmlns="http://www.w3.org/2000/svg" xmlns:xlink="http://www.w3.org/1999/xlink" x="0px" y="0px" viewBox="0 0 100 70" xml:space="preserve">
<path fill="#F01414" d="M90,0H10C4.5,0,0,4.5,0,10v50c0,5.5,4.5,10,10,10h80c5.5,0,10-4.5,10-10.1V10C100,4.5,95.5,0,90,0z"/>
<path fill="#FFFFFF" d="M92.7,59.9c0.1,1.5-1.1,2.8-2.7,2.9c0,0,0,0,0,0H10c-1.5,0-2.7-1.3-2.7-2.8c0,0,0,0,0,0V10  C7.2,8.5,8.4,7.2,9.9,7.1c0,0,0.1,0,0.1,0h80c1.5,0,2.7,1.3,2.7,2.8c0,0,0,0.1,0,0.1V59.9L92.7,59.9L92.7,59.9z"/>
<path fill="#F01414" d="M30.6,57.9H13.8V12.1h16.8c11.9,0,18.4,7.4,18.4,22.7C49,48,44.5,57.8,30.6,57.9z M37.9,35.7  c0-9.2-1-16.4-10.9-16.4h-2.2v31.2h3.9C34.5,50.5,37.9,45.8,37.9,35.7L37.9,35.7z"/>
<path fill="#F01414" d="M78,33.9c4.7-1.4,7.9-5.7,8-10.7c0-1-0.2-11.2-13.1-11.2H53.8v45.8H70c4.3,0,17.7,0,17.7-12.9  C87.7,41.8,86.3,35.7,78,33.9z M64.7,19.2h3.5c4.9,0,6.9,1.7,6.9,5.5c0,3-2.2,5.5-6,5.5h-4.3V19.2z M69.2,50.5h-4.5V38.7h4.8  c5.7,0,7.1,3.3,7.1,5.9C76.6,50.5,71,50.5,69.2,50.5z"/>
</svg>